<svg xmlns="http://www.w3.org/2000/svg" width="758.263" height="248.812" viewBox="0 0 758.263 248.812"><path d="m131.173 55.176-48.67 137.42H48.67L0 55.175h31.492l34.615 113.215 35.136-113.215Zm59.759 78.08c.867 13.36 4.685 23.423 11.452 30.19 6.94 6.593 15.615 9.89 26.026 9.89 6.42 0 12.493-.954 18.218-2.863 5.9-2.082 11.886-5.119 17.959-9.11l12.492 17.699c-6.42 5.378-13.967 9.543-22.643 12.492-8.675 2.95-17.784 4.425-27.327 4.425-20.995 0-37.305-6.507-48.93-19.52-11.625-13.187-17.438-30.711-17.438-52.573 0-13.708 2.516-26.027 7.548-36.958 5.032-11.104 12.32-19.78 21.862-26.026 9.543-6.247 20.648-9.37 33.314-9.37 18.218 0 32.62 6.16 43.204 18.479 10.757 12.146 16.136 28.89 16.136 50.231 0 5.205-.26 9.543-.78 13.013zm32.793-60.122c-9.37 0-17.004 3.384-22.903 10.15-5.9 6.767-9.283 16.83-10.15 30.191h63.764c-.347-13.013-3.123-22.99-8.328-29.93-5.205-6.94-12.666-10.41-22.383-10.41zm159.441 81.983c0 11.626 6.94 17.438 20.821 17.438 6.94 0 14.228-1.561 21.863-4.685l7.287 20.3c-9.543 5.206-21.342 7.809-35.396 7.809-13.707 0-24.465-3.817-32.273-11.452-7.634-7.808-11.451-18.479-11.451-32.012V21.342h-41.382V0h70.531zM534.017 51.532c19.78 0 35.05 6.507 45.807 19.52 10.757 12.84 16.136 30.364 16.136 52.573 0 22.21-5.465 39.82-16.396 52.834-10.931 13.013-26.2 19.52-45.807 19.52-19.78 0-35.135-6.333-46.067-19-10.757-12.84-16.136-30.537-16.136-53.093 0-21.862 5.466-39.387 16.397-52.574 11.104-13.186 26.46-19.78 46.066-19.78zm0 22.643c-10.584 0-18.565 4.078-23.944 12.233-5.205 8.155-7.808 20.647-7.808 37.478 0 17.004 2.603 29.583 7.808 37.738 5.205 7.981 13.1 11.972 23.684 11.972 10.584 0 18.479-4.077 23.684-12.232 5.205-8.155 7.808-20.735 7.808-37.739 0-16.83-2.603-29.236-7.808-37.217-5.205-8.155-13.013-12.233-23.424-12.233Zm224.246-12.232c-5.032 1.735-10.757 2.95-17.177 3.644-6.247.52-13.794.78-22.643.78 8.328 3.818 14.575 8.59 18.739 14.315 4.164 5.726 6.246 12.666 6.246 20.821 0 9.022-2.256 17.004-6.767 23.944-4.338 6.94-10.584 12.406-18.739 16.397-8.155 3.99-17.785 5.986-28.89 5.986-7.807 0-14.053-.78-18.738-2.342a14.217 14.217 0 0 0-4.425 5.205c-1.04 1.909-1.561 3.99-1.561 6.246 0 6.94 5.639 10.41 16.917 10.41h23.944c9.717 0 18.392 1.65 26.027 4.946 7.634 3.297 13.533 7.895 17.698 13.794 4.337 5.726 6.506 12.232 6.506 19.52 0 13.707-5.9 24.29-17.698 31.752-11.798 7.634-28.802 11.451-51.011 11.451-15.443 0-27.675-1.648-36.698-4.945-8.849-3.123-15.182-7.807-18.999-14.054-3.644-6.073-5.466-13.967-5.466-23.684h26.027c0 5.205.954 9.283 2.863 12.233 2.082 3.123 5.639 5.378 10.67 6.766 5.032 1.562 12.32 2.343 21.863 2.343 13.88 0 23.857-1.735 29.93-5.205 6.073-3.297 9.11-8.242 9.11-14.836 0-5.552-2.43-9.89-7.288-13.013-4.685-2.95-11.105-4.424-19.26-4.424H675.76c-12.319 0-21.688-2.516-28.108-7.548-6.246-5.032-9.37-11.365-9.37-19 0-4.684 1.302-9.195 3.904-13.533 2.603-4.338 6.333-8.068 11.192-11.191-8.155-4.338-14.141-9.543-17.958-15.616-3.644-6.246-5.466-13.88-5.466-22.903 0-9.543 2.43-17.959 7.287-25.246 4.859-7.46 11.625-13.187 20.301-17.177 8.675-4.165 18.565-6.247 29.67-6.247 14.922.174 26.72-.867 35.396-3.123 8.849-2.256 18.218-5.812 28.108-10.67zm-70.792 9.89c-9.196 0-16.136 2.603-20.82 7.808-4.686 5.032-7.028 11.885-7.028 20.56 0 8.85 2.342 15.877 7.027 21.082 4.858 5.032 11.886 7.548 21.082 7.548 8.675 0 15.268-2.516 19.78-7.548 4.51-5.032 6.767-12.232 6.767-21.602 0-18.565-8.936-27.848-26.808-27.848z"/></svg>